<svg width="640" height="640" viewBox="0 0 640 640" fill="none" xmlns="http://www.w3.org/2000/svg">
<g clip-path="url(#clip0_3017_58)">
<mask id="mask0_3017_58" style="mask-type:alpha" maskUnits="userSpaceOnUse" x="0" y="0" width="640" height="640">
<circle cx="320" cy="320" r="320" fill="#D9D9D9"/>
</mask>
<g mask="url(#mask0_3017_58)">
<path d="M0 0H640V640H0V0Z" fill="#021539"/>
<path d="M312.391 426.696C312.803 426.475 313.434 426.014 313.866 425.909C317.104 425.115 339.535 432.453 344.827 431.728C348.525 433.442 351.983 437.133 354.904 439.962C349.645 439.992 336.512 440.875 332.051 439.451C328.459 438.306 325.419 434.966 322.303 432.88C319.069 430.715 315.653 428.821 312.391 426.696Z" fill="#15BAD1"/>
<path d="M399.696 423.408C402.289 425.847 405.065 428.267 407.915 430.4C412.392 430.437 422.656 429.765 426.646 431.227C423.601 434.279 420.283 437.031 417 439.816C401.63 440.512 386.049 439.853 370.643 440.005C379.12 433.047 389.333 427.032 399.696 423.408Z" fill="#15BAD1"/>
<path d="M263.283 192.024C267.643 191.922 272.499 193.062 276.843 193.755C299.626 197.386 320.096 205.123 338.84 218.749C323.157 218.874 307.473 218.881 291.789 218.771C288.993 214.963 285.954 211.36 282.672 207.96C279.391 204.562 275.896 201.399 272.187 198.472C269.286 196.214 266.194 194.251 263.283 192.024Z" fill="#FEFEFE"/>
<path d="M135.176 356.919C143.714 356.183 152.767 356.76 161.352 356.765C173.837 356.773 186.469 356.389 198.936 356.975C202.779 362.627 207.907 368.093 211.21 374.031C193.53 373.544 175.472 373.68 157.813 374.427C153.682 370.402 149.35 366.621 144.627 363.301C141.735 361.267 137.557 359.402 135.176 356.919Z" fill="#15BAD1"/>
<path d="M204.85 426.73C207.758 426.099 211.624 426.821 214.662 426.741C220.725 426.581 226.946 426.05 232.973 425.36C242.29 424.291 251.117 421.155 260.344 419.767L260.885 420.003C263.598 421.155 266.61 421.621 269.363 422.744C279.365 426.823 288.648 432.576 297.627 438.509L241.202 438.343C232.454 438.341 223.637 438.594 214.896 438.362C211.563 434.48 208.296 430.512 204.85 426.73Z" fill="#15BAD1"/>
<path d="M247.347 251.634C262.856 252.367 278.446 251.256 293.97 251.933C298.902 257.706 302.934 264.269 306.683 270.848C311.907 278.515 313.902 287.411 315.312 296.421C312.355 294.135 303.301 288.127 301.466 285.517C292.027 279.415 282.262 273.869 272.734 267.915C264.211 262.589 255.925 256.866 247.347 251.634Z" fill="#FEFEFE"/>
<path d="M283.357 261.689C290.064 263.347 298.581 266.141 304.383 269.891C305.207 270.424 305.714 270.689 306.683 270.848C311.907 278.515 313.903 287.411 315.312 296.421C312.355 294.134 303.301 288.126 301.466 285.517C300.944 283.816 299.711 282.118 298.81 280.585C294.434 273.131 289.911 267.355 283.357 261.689Z" fill="#15BAD1"/>
<path d="M145.151 387.344C153.755 386.464 162.903 387.098 171.563 387.103L221.784 387.231C225.027 391.064 228.549 394.984 231.24 399.223C230.69 399.959 229.975 399.917 229.104 400.128C207.242 404.189 187.114 403.199 165.055 403.218C161.165 399.531 157.355 395.608 153.03 392.426C150.545 390.597 147.363 389.431 145.151 387.344Z" fill="#15BAD1"/>
<path d="M433.245 356.749L504.393 356.783C499.353 360.24 494.87 364.933 490.025 368.725C487.547 370.597 485.115 372.458 482.406 373.994C462.808 374.146 443.201 373.815 423.603 374.082C426.96 368.378 430.361 362.712 433.245 356.749Z" fill="#15BAD1"/>
<path d="M270.114 275.245C273.434 276.686 276.506 279.606 279.187 282.005C287.667 289.59 296.608 298.31 300.823 309.093C303.752 316.589 303.351 324.081 300.557 331.533C293.871 331.558 262.063 332.501 257.426 331.11C265.259 326.257 273.093 320.067 276.871 311.374C280.181 303.752 279.085 293.283 275.605 285.893C273.962 282.401 271.629 279.214 270.247 275.608C270.2 275.488 270.157 275.366 270.114 275.245Z" fill="#15BAD1"/>
<path d="M416.31 386.354L496.233 386.306C492.259 390.83 487.213 394.558 482.542 398.342L478.162 401.566C473.112 401.906 467.949 401.704 462.885 401.701L436.221 401.694C430.213 401.701 415.467 402.597 410.763 401.483C408.992 401.064 406.693 398.549 405.285 397.325C408.707 393.723 412.253 389.208 416.31 386.354Z" fill="#15BAD1"/>
<path d="M391.909 346.768C401.128 346.779 410.371 346.65 419.589 346.827C415.454 359.538 402.659 374.781 392.258 382.955C390.743 381.882 389.203 380.847 387.637 379.848C386.071 378.851 384.482 377.892 382.869 376.973C381.256 376.053 379.621 375.174 377.965 374.335C376.308 373.495 374.633 372.697 372.938 371.941C371.242 371.184 369.529 370.469 367.798 369.797C366.067 369.125 364.321 368.496 362.56 367.909C360.798 367.322 359.023 366.779 357.235 366.28C355.446 365.781 353.647 365.326 351.837 364.915C350.026 364.505 348.206 364.139 346.378 363.818C344.548 363.497 342.713 363.22 340.87 362.989C339.028 362.759 337.181 362.573 335.33 362.432C333.479 362.292 331.626 362.198 329.77 362.149C327.914 362.101 326.058 362.098 324.202 362.139C322.345 362.182 320.49 362.27 318.638 362.403C316.787 362.538 314.939 362.717 313.096 362.941C311.253 363.166 309.417 363.436 307.587 363.751C303.109 364.503 293.082 367.949 289.664 367.936C286.141 366.099 268.608 365.343 262.688 363.89C279.026 362.792 295.181 360.112 311.467 358.795C334.67 356.92 356.33 359.325 378.854 364.722C383.576 358.973 388.315 353.311 391.909 346.768Z" fill="#15BAD1"/>
<path d="M216.739 270.504C232.8 270.377 248.861 270.351 264.923 270.427C266.725 271.973 268.438 273.562 270.114 275.245C270.157 275.366 270.2 275.488 270.246 275.608C271.629 279.214 273.962 282.402 275.605 285.893C279.085 293.283 280.181 303.752 276.87 311.374C273.093 320.067 265.259 326.258 257.426 331.11C254.75 331.699 251.997 331.662 249.27 331.728C253.405 323.586 256.758 316.347 253.694 307.174C248.712 292.261 230.389 277.402 216.739 270.504Z" fill="#FEFEFE"/>
<path d="M357.366 244.739C357.672 244.766 357.771 244.763 358.102 244.862C362.11 246.054 366.201 248.666 370.064 250.395C396.433 262.206 419.827 282.419 436.774 305.736C442.624 313.782 447.637 322.36 452.488 331.029C447.773 331.488 442.79 331.213 438.053 331.216L412.669 331.222C407.249 300.262 396.233 281.338 373.629 259.464C368.374 254.379 362.557 249.899 357.366 244.739Z" fill="#FEFEFE"/>
<path d="M349.966 242.689C353.158 245.217 355.856 248.774 358.489 251.869C374 270.075 386.017 293.651 388.819 317.563C389.317 322.123 389.569 326.697 389.576 331.285L352.243 331.421C346.285 331.44 337.648 332.28 332.001 330.909C337.232 327.603 342.217 324.203 346.691 319.901C355.214 311.702 360.573 300.785 360.677 288.853C360.798 274.928 353.073 258.624 343.317 248.707C345.705 246.832 347.832 244.838 349.966 242.689Z" fill="#15BAD1"/>
<path d="M208.838 346.45C244.323 347.307 279.912 346.523 315.408 346.506C340.867 346.491 366.474 347.477 391.909 346.768C388.315 353.31 383.576 358.973 378.854 364.722C356.33 359.325 334.67 356.92 311.467 358.795C295.181 360.112 279.026 362.792 262.688 363.89C268.608 365.342 286.141 366.099 289.664 367.936C274.826 372.973 259.837 378.981 246.832 387.856C233.57 374.891 221.125 360.338 208.838 346.45Z" fill="#FEFEFE"/>
<path d="M285.243 230.408L360.506 230.447C356.885 234.423 353.602 238.706 349.966 242.69C347.832 244.839 345.706 246.832 343.317 248.707C353.074 258.624 360.798 274.928 360.677 288.853C360.573 300.786 355.214 311.703 346.691 319.901C342.218 324.203 337.232 327.603 332.002 330.909C330.317 331.394 328.134 331.328 326.365 331.45C330.715 320.77 332.336 310.96 331.365 299.48C330.68 291.383 328.397 283.65 325.054 276.269C316.043 256.363 301.618 244.202 285.243 230.408Z" fill="#FEFEFE"/>
<path d="M192.053 417.259C200.467 417.187 208.982 416.874 217.202 414.909C229.821 411.894 242.072 405.939 253.654 400.235C275.803 389.327 297.165 381.128 322.258 381.722C349.251 382.36 372.48 391.752 395.242 405.818C402.053 410.026 410.005 416.269 417.742 418.405C422.59 419.742 436.189 419.523 441.656 419.171C436.33 422.787 431.693 427.253 426.646 431.227C422.656 429.765 412.392 430.437 407.915 430.4C405.066 428.267 402.29 425.847 399.696 423.408C387.862 415.771 375.678 410.234 362.35 405.733C336.462 396.99 315.398 394.742 288.48 400.571C284.438 401.446 280.424 402.463 276.534 403.88C299.211 406.755 327.28 416.718 344.827 431.728C339.534 432.453 317.104 425.115 313.866 425.909C313.434 426.014 312.803 426.475 312.39 426.696C295.664 419.006 278.534 416.205 260.344 419.767C251.117 421.155 242.29 424.291 232.973 425.36C226.946 426.05 220.725 426.581 214.662 426.741C211.624 426.821 207.758 426.099 204.85 426.73C200.686 423.472 196.568 420.016 192.053 417.259Z" fill="#6AEEEE"/>
</g>
</g>
<defs>
<clipPath id="clip0_3017_58">
<rect width="640" height="640" fill="white"/>
</clipPath>
</defs>
</svg>
